<?xml version="1.0" standalone="no"?>
<!DOCTYPE svg PUBLIC "-//W3C//DTD SVG 20010904//EN"
 "http://www.w3.org/TR/2001/REC-SVG-20010904/DTD/svg10.dtd">
<svg version="1.0" xmlns="http://www.w3.org/2000/svg"
 width="500.000000pt" height="500.000000pt" viewBox="0 0 500.000000 500.000000"
 preserveAspectRatio="xMidYMid meet">
<metadata>
Created by potrace 1.11, written by Peter Selinger 2001-2013
</metadata>
<g transform="translate(0.000000,500.000000) scale(0.100000,-0.100000)"
fill="#000000" stroke="none">
<path d="M158 4856 c3 -128 5 -146 23 -162 26 -23 102 -29 226 -15 55 6 165
13 244 17 79 3 158 10 174 15 17 4 88 9 159 10 100 1 132 5 147 17 24 20 8 52
-26 52 -29 0 -34 30 -10 70 8 14 18 33 21 43 3 9 15 17 25 17 10 0 21 5 25 11
3 6 18 9 32 6 18 -3 31 2 46 19 20 23 23 23 71 11 36 -10 54 -21 65 -40 14
-26 14 -28 -15 -55 -33 -31 -88 -54 -110 -46 -16 7 -35 -25 -35 -60 0 -19 -5
-26 -19 -26 -29 0 -34 -17 -12 -39 12 -12 18 -27 15 -36 -8 -20 34 -20 60 0
14 11 46 15 107 15 48 0 91 5 94 10 11 17 84 11 127 -11 l42 -21 23 28 c13 16
23 37 23 46 0 10 5 17 12 15 9 -1 11 16 8 63 -2 36 -3 93 -3 128 l0 62 -771 0
-771 0 3 -144z m1087 -136 c3 -5 1 -10 -4 -10 -6 0 -11 5 -11 10 0 6 2 10 4
10 3 0 8 -4 11 -10z"/>
<path d="M2830 4960 c0 -22 -4 -40 -10 -40 -5 0 -10 4 -10 9 0 5 -19 -1 -42
-14 -78 -42 -92 -41 -145 10 -39 38 -52 45 -73 40 -14 -4 -26 -8 -28 -10 -2
-2 1 -29 8 -59 11 -54 12 -56 45 -56 24 0 34 -5 38 -20 5 -20 27 -28 27 -10 0
6 9 10 19 10 11 0 23 5 26 10 13 21 42 9 71 -30 16 -22 35 -40 42 -40 6 0 12
-7 12 -15 0 -8 6 -15 13 -16 37 -2 -37 -18 -88 -18 -65 -1 -160 -15 -390 -55
-552 -97 -902 -241 -1110 -455 -73 -75 -112 -138 -140 -224 -31 -97 -33 -222
-6 -347 44 -197 219 -603 280 -648 36 -27 40 -47 9 -48 -13 0 -68 -4 -123 -9
-55 -4 -246 -8 -425 -9 -179 -2 -439 -3 -577 -4 l-253 -2 0 -575 0 -575 23 0
c12 0 62 10 112 21 137 31 152 33 270 32 129 0 227 -11 237 -27 9 -13 180 -10
208 4 11 5 29 14 39 20 36 17 118 22 172 10 54 -11 588 -24 614 -14 16 7 8 42
-15 69 -28 31 -100 222 -100 264 0 20 -7 69 -17 109 -14 60 -14 74 -3 85 10 9
11 9 6 -1 -4 -7 -1 -23 7 -35 7 -12 17 -42 21 -66 4 -24 13 -53 21 -64 8 -12
15 -36 15 -54 0 -17 5 -35 11 -39 7 -4 10 14 7 60 -1 36 0 66 4 66 7 0 44 -93
54 -137 20 -94 46 -120 80 -82 25 27 31 24 55 -26 12 -25 25 -48 30 -51 23
-14 -2 71 -60 208 -58 136 -83 235 -84 346 -2 113 10 129 59 78 23 -24 45 -35
76 -40 67 -10 294 28 478 80 l24 7 -24 -30 c-14 -17 -28 -29 -31 -27 -4 2 -21
-10 -39 -26 -21 -20 -27 -30 -17 -30 19 0 87 39 87 50 0 4 8 10 18 12 26 7 89
146 113 247 23 100 36 123 78 141 44 18 75 6 118 -47 71 -88 148 -158 203
-185 49 -25 66 -28 165 -29 61 0 127 2 148 6 71 14 36 25 -80 26 -132 0 -181
4 -190 13 -4 3 4 6 16 6 84 0 446 103 484 138 34 30 45 65 52 165 4 54 10 96
12 93 3 -3 5 -40 5 -83 -1 -114 0 -116 57 -108 75 10 116 -12 145 -77 36 -83
53 -153 71 -288 9 -69 21 -130 26 -136 13 -16 30 -159 24 -203 -2 -20 -7 -87
-10 -150 -3 -63 -10 -155 -15 -205 -7 -56 -7 -99 -2 -111 6 -11 22 -81 38
-155 15 -74 36 -147 46 -162 10 -14 18 -29 18 -33 0 -13 53 -76 80 -95 16 -12
71 -27 136 -38 l108 -19 74 23 c41 13 83 24 92 24 10 0 34 7 53 15 46 19 175
20 247 1 46 -12 68 -12 140 -1 47 7 113 16 148 20 l62 7 0 1041 0 1042 -483
-2 c-265 -2 -516 -4 -559 -5 l-76 -3 -26 66 c-14 37 -26 85 -26 107 0 115
-105 525 -180 702 -47 110 -138 226 -226 287 -79 55 -281 133 -345 133 -34 0
-69 11 -69 20 0 14 42 23 105 22 55 -1 206 21 225 33 4 2 69 -2 144 -10 143
-15 196 -33 196 -67 0 -10 6 -18 14 -18 8 0 16 -6 19 -12 3 -9 10 -7 23 8 40
43 124 56 124 18 0 -9 10 -14 28 -14 15 0 32 -4 37 -8 6 -5 30 -14 55 -21 41
-12 45 -12 61 8 10 12 22 21 28 21 6 0 11 7 11 15 0 8 4 15 10 15 5 0 39 14
75 31 49 23 72 29 98 24 29 -6 35 -4 40 14 3 12 1 24 -4 27 -5 3 -9 20 -9 37
0 18 -6 55 -14 82 -7 28 -11 56 -9 63 4 9 -144 12 -716 12 l-721 0 0 -40z
m-80 -1431 c-9 -31 -2 -37 18 -17 9 9 12 7 12 -12 1 -25 1 -25 17 4 19 36 29
23 38 -50 6 -39 4 -53 -9 -63 -9 -7 -16 -10 -16 -5 0 5 -4 5 -8 -1 -9 -12 -84
-49 -95 -47 -17 5 -46 -19 -41 -33 4 -10 0 -15 -14 -15 -12 0 -24 -5 -27 -10
-4 -6 -16 -8 -28 -5 -12 2 -16 2 -9 -1 17 -8 15 -34 -5 -56 -9 -10 -11 -18 -5
-18 6 0 9 -7 6 -15 -4 -8 -13 -15 -21 -15 -11 0 -13 -5 -8 -17 4 -10 8 -27 10
-38 1 -11 11 -22 24 -25 22 -5 22 -5 -6 -22 -34 -19 -70 -24 -101 -14 -18 6
-21 11 -12 22 9 10 8 17 -4 29 -20 20 -20 75 -1 140 9 27 13 55 11 62 -3 7 1
13 8 13 16 0 26 22 26 56 0 15 6 24 15 24 8 0 14 6 13 13 -2 6 3 11 10 9 8 -1
11 2 7 7 -3 6 6 18 20 27 16 10 22 20 15 24 -7 4 -3 13 10 25 15 14 20 15 21
4 1 -8 5 -3 9 11 6 18 8 20 9 7 1 -10 -4 -27 -9 -38 -21 -39 15 -19 44 25 22
33 36 43 57 44 25 1 27 -1 19 -29z m183 -42 c12 12 27 -46 17 -69 -5 -13 -9
-18 -9 -13 -1 12 -51 14 -51 2 0 -4 -9 -2 -20 5 -14 9 -20 24 -20 52 0 31 2
36 14 27 11 -9 15 -7 19 11 l6 22 19 -22 c11 -12 22 -19 25 -15z m89 -12 c10
-11 18 -27 18 -35 0 -13 -1 -13 -10 0 -8 12 -11 11 -16 -8 -6 -21 -8 -22 -25
-6 -20 18 -34 68 -24 84 8 12 28 0 57 -35z m-552 -78 c0 -18 -7 -59 -15 -90
-8 -32 -15 -78 -15 -102 0 -41 -9 -57 -37 -61 -14 -2 -83 62 -83 78 0 9 -3 9
-12 0 -9 -9 -15 -9 -27 2 -9 8 -25 16 -36 18 -11 2 -21 12 -23 22 -3 11 0 16
7 12 6 -4 11 -2 11 3 0 16 42 61 52 55 4 -3 8 0 8 6 0 6 16 26 35 44 27 26 41
32 62 28 16 -3 22 -7 16 -9 -7 -3 -13 -14 -13 -25 0 -17 3 -18 15 -8 8 7 15
19 15 26 0 8 5 14 10 14 6 0 10 7 10 16 0 8 5 12 10 9 6 -3 10 -21 10 -38z
m910 -113 c-34 -7 -108 -8 -103 -1 2 4 30 6 61 6 31 -1 50 -3 42 -5z m113 -21
c3 -10 8 -35 12 -56 8 -50 -10 -41 -19 9 -4 19 -10 42 -13 50 -3 8 0 14 5 14
6 0 13 -8 15 -17z m-53 -28 c0 -21 -39 -40 -53 -26 -8 8 -5 15 9 26 25 19 44
19 44 0z m112 0 c0 -5 4 -18 10 -28 8 -16 6 -18 -14 -15 -17 2 -24 10 -26 31
-3 22 0 28 13 25 9 -1 16 -7 17 -13z m-354 -2 c-32 -5 -38 -23 -7 -23 11 0 17
-4 14 -10 -3 -5 3 -10 15 -10 12 0 28 -6 35 -14 9 -9 29 -12 59 -9 45 5 46 4
63 -33 10 -25 16 -69 17 -124 1 -107 -12 -131 -97 -170 -114 -53 -396 -112
-459 -97 -61 16 -157 164 -165 255 -3 37 -1 42 6 25 8 -17 19 -23 40 -23 32 0
51 -22 51 -59 0 -12 5 -21 11 -21 6 0 30 -13 52 -30 29 -20 55 -30 82 -31 56
-2 212 31 226 47 12 14 6 15 -93 18 -13 1 -26 4 -29 9 -3 4 -22 8 -42 9 -21 1
-37 6 -37 13 0 12 65 41 105 47 11 2 28 19 38 38 11 19 21 37 23 39 5 5 34
-20 34 -30 0 -16 -31 -38 -45 -33 -8 4 -15 1 -15 -5 0 -14 126 -15 135 -1 3 6
28 10 55 10 27 0 51 4 54 9 9 13 -76 93 -131 122 -58 32 -141 43 -208 29 -98
-22 -113 -22 -63 -2 74 31 205 59 268 59 28 0 30 -1 8 -4z m-338 -83 c-8 -5
-19 -10 -25 -10 -5 0 -3 5 5 10 8 5 20 10 25 10 6 0 3 -5 -5 -10z m160 -40 c0
-5 -5 -10 -11 -10 -5 0 -7 5 -4 10 3 6 8 10 11 10 2 0 4 -4 4 -10z m-65 -109
c-11 -10 -55 24 -55 42 0 16 3 15 30 -9 16 -16 27 -30 25 -33z m1059 28 c39
-31 57 -82 67 -194 5 -55 13 -122 19 -150 30 -150 22 -209 -39 -299 -43 -62
-91 -90 -142 -83 -23 3 -49 13 -60 23 -18 16 -20 16 -39 -1 -20 -18 -20 -18
-14 56 4 41 11 76 16 77 4 2 8 17 8 34 0 24 3 28 19 23 19 -6 39 17 57 68 3 9
10 17 14 17 13 0 50 -51 50 -67 0 -9 10 -2 25 15 21 25 25 39 22 74 -5 59 -21
84 -65 107 -21 11 -44 30 -51 44 -12 22 -10 29 13 63 14 21 26 44 26 51 0 14
28 17 46 5 6 -4 19 -28 29 -54 20 -53 29 -58 46 -27 16 30 5 80 -27 129 -27
41 -29 42 -71 36 l-43 -6 0 34 c0 18 3 36 7 39 13 14 61 6 87 -14z m-1836 -36
c-10 -2 -26 -2 -35 0 -10 3 -2 5 17 5 19 0 27 -2 18 -5z m-145 -24 c-82 -31
-152 -119 -153 -190 0 -14 -5 -40 -11 -58 -14 -39 -6 -50 19 -28 10 10 25 17
34 17 8 0 18 3 22 7 3 4 26 8 49 9 23 2 61 10 85 18 38 14 44 14 49 1 7 -21
-13 -43 -47 -50 -26 -6 -50 -39 -38 -51 3 -2 32 0 66 4 41 6 65 5 72 -2 7 -7
16 -7 30 2 11 6 28 12 39 12 11 0 23 12 31 30 7 17 21 35 30 40 10 5 25 25 34
44 18 38 14 52 -30 113 -16 22 -9 25 29 8 9 -4 26 -5 36 -2 18 4 20 -1 20 -49
0 -35 -4 -52 -11 -48 -7 4 -7 0 0 -13 20 -37 -9 -116 -54 -152 -58 -46 -300
-101 -440 -101 -69 0 -73 1 -100 33 -30 35 -58 96 -50 105 3 3 6 1 6 -4 0 -5
10 -24 21 -43 19 -31 22 -33 31 -17 7 12 5 24 -6 41 -23 35 -20 58 13 107 16
24 37 62 47 86 12 26 24 40 32 37 7 -3 11 -1 7 4 -9 15 35 81 59 86 127 30
148 31 79 4z m-173 -36 c-8 -3 -30 -12 -47 -19 -18 -7 -33 -11 -33 -8 0 7 63
33 80 33 13 -1 13 -1 0 -6z m-111 -57 c-13 -14 -26 -22 -29 -19 -5 4 37 43 47
43 3 0 -5 -11 -18 -24z m495 5 c10 -16 -5 -41 -25 -41 -16 0 -17 3 -7 25 12
26 23 31 32 16z m-183 -53 c44 -36 41 -47 -20 -54 -31 -4 -43 -1 -47 11 -6 14
13 75 23 75 2 0 22 -14 44 -32z m-390 -9 c-27 -22 -44 -21 -49 4 -3 14 4 17
35 17 l38 -1 -24 -20z m46 -11 c-3 -7 -5 -2 -5 12 0 14 2 19 5 13 2 -7 2 -19
0 -25z m570 16 c-10 -10 -77 -22 -77 -14 0 5 8 11 18 13 26 7 66 8 59 1z
m-570 -66 c-3 -7 -5 -2 -5 12 0 14 2 19 5 13 2 -7 2 -19 0 -25z m-57 -95 c0
-57 -5 -53 -13 10 -4 31 -3 46 3 42 6 -3 10 -27 10 -52z m2222 -29 c15 -31 6
-66 -19 -75 -21 -8 -22 -6 -17 44 3 29 8 59 11 67 5 13 6 13 10 0 2 -8 9 -24
15 -36z"/>
<path d="M4480 4950 c0 -27 -4 -50 -8 -50 -13 0 -32 -47 -32 -76 0 -17 -7 -28
-20 -31 -11 -3 -20 -11 -20 -18 0 -8 -10 -15 -22 -18 -20 -3 -21 -4 -5 -11 22
-10 87 -75 87 -87 0 -5 5 -9 10 -9 6 0 10 -7 10 -16 0 -12 7 -15 28 -11 103
19 151 31 175 43 16 8 33 14 39 14 6 0 21 11 33 24 15 16 38 26 73 31 29 4 52
11 52 16 0 5 27 9 60 9 l60 0 0 120 0 120 -260 0 -260 0 0 -50z"/>
<path d="M2725 2511 c-31 -13 -56 -46 -58 -77 -3 -30 -21 -38 -45 -20 -10 7
-16 5 -22 -5 -8 -12 -11 -11 -22 4 -22 30 -86 32 -133 5 -23 -14 -41 -32 -41
-43 -1 -11 -2 -24 -3 -28 -1 -4 -10 -3 -20 2 -16 9 -18 8 -14 -9 12 -44 149
-80 181 -48 9 9 15 9 24 0 30 -30 120 2 136 48 9 23 18 29 54 35 100 15 148
35 168 68 26 42 25 50 -4 43 -14 -3 -27 -2 -31 4 -3 5 -11 7 -18 4 -7 -2 -30
2 -50 11 -40 16 -71 18 -102 6z"/>
<path d="M2158 2433 c7 -3 16 -2 19 1 4 3 -2 6 -13 5 -11 0 -14 -3 -6 -6z"/>
<path d="M2855 2198 c-16 -6 -34 -14 -40 -18 -5 -4 -37 -6 -70 -4 -33 1 -82
-2 -110 -8 -54 -11 -85 -35 -62 -50 7 -5 1 -7 -15 -4 -43 7 -75 -15 -110 -75
-28 -47 -40 -58 -75 -69 -24 -7 -41 -16 -38 -20 3 -5 1 -11 -5 -15 -16 -10
-12 -44 8 -53 26 -14 73 3 119 43 39 33 135 85 159 85 6 0 60 16 120 36 105
35 115 37 255 38 130 1 149 3 168 20 28 26 27 31 -15 51 -30 14 -40 15 -65 4
-27 -11 -36 -9 -91 20 -64 33 -85 36 -133 19z"/>
<path d="M2520 2139 c0 -5 5 -7 10 -4 6 3 10 8 10 11 0 2 -4 4 -10 4 -5 0 -10
-5 -10 -11z"/>
<path d="M2957 1994 c-3 -4 -26 -8 -49 -10 -24 -2 -52 -8 -63 -13 -11 -5 -33
-13 -50 -16 -28 -7 -29 -8 -10 -19 11 -6 37 -28 57 -48 32 -33 40 -37 63 -28
14 5 25 14 25 20 0 5 7 10 15 10 19 0 95 77 95 96 0 14 -70 21 -83 8z"/>
<path d="M2562 1903 c-25 -3 -38 -13 -57 -43 -13 -21 -30 -40 -37 -43 -7 -2
-10 -7 -7 -11 4 -4 18 3 30 15 13 12 49 37 79 55 30 19 48 33 40 32 -8 -1 -30
-3 -48 -5z"/>
<path d="M1885 1790 c-39 -41 -96 -42 -138 -2 l-29 27 4 -757 c1 -417 3 -758
3 -758 1 0 26 9 58 20 31 11 72 20 90 20 18 0 40 6 49 13 25 20 71 179 64 224
-3 21 -10 86 -15 145 -5 59 -17 142 -26 184 -19 81 -16 133 9 223 9 30 18 91
22 135 3 45 15 113 26 151 16 57 19 85 13 149 -6 68 -13 91 -54 167 l-48 89
-28 -30z"/>
<path d="M2297 1734 c-16 -9 -27 -17 -25 -19 8 -8 47 8 52 21 6 17 8 17 -27
-2z"/>
<path d="M2285 1699 c-4 -5 3 -9 14 -9 26 0 35 15 11 17 -11 1 -22 -2 -25 -8z"/>
<path d="M3665 1650 c-3 -5 -15 -10 -25 -10 -10 0 -21 -6 -23 -12 -4 -10 -8
-9 -17 2 -9 12 -10 11 -5 -8 4 -13 1 -29 -6 -38 -22 -27 2 -29 26 -2 21 24 24
25 44 12 20 -15 21 -14 21 25 0 41 -4 49 -15 31z"/>
<path d="M3533 1585 c-7 -8 -20 -18 -29 -23 -9 -5 -14 -14 -10 -21 10 -16 26
-14 26 4 0 8 7 15 15 15 8 0 15 2 15 4 0 2 3 11 6 20 8 20 -7 20 -23 1z"/>
<path d="M3045 1544 c-33 -17 -53 -34 -41 -34 10 0 76 40 76 46 0 6 -2 5 -35
-12z"/>
<path d="M3367 1462 c-27 -29 -20 -44 8 -18 14 13 25 26 25 30 0 12 -17 6 -33
-12z"/>
<path d="M3391 1421 c-21 -16 -21 -19 -6 -24 23 -10 25 -9 25 8 0 8 7 15 15
15 8 0 15 5 15 10 0 15 -23 11 -49 -9z"/>
<path d="M3225 1302 c-18 -9 -25 -17 -16 -20 15 -5 61 17 61 30 0 11 -9 9 -45
-10z"/>
<path d="M4425 1252 c-51 -6 -49 -19 5 -26 30 -4 59 -15 70 -26 25 -25 30 -25
30 -1 0 33 -52 59 -105 53z"/>
<path d="M3510 930 c0 -6 7 -10 15 -10 8 0 15 2 15 4 0 2 -7 6 -15 10 -8 3
-15 1 -15 -4z"/>
<path d="M3550 910 c0 -5 5 -10 10 -10 6 0 10 5 10 10 0 6 -4 10 -10 10 -5 0
-10 -4 -10 -10z"/>
<path d="M3600 889 c0 -5 5 -7 10 -4 6 3 10 8 10 11 0 2 -4 4 -10 4 -5 0 -10
-5 -10 -11z"/>
<path d="M3485 882 c-38 -3 -76 -26 -72 -42 1 -5 -7 -16 -18 -25 -20 -15 -20
-16 3 -32 l22 -15 -37 -20 c-52 -27 -65 -42 -31 -34 30 7 61 -2 52 -15 -3 -5
-14 -9 -25 -9 -14 0 -19 -7 -19 -25 0 -22 -4 -25 -40 -25 -22 0 -40 4 -40 9 0
5 -20 11 -45 13 -31 2 -45 -1 -45 -9 0 -9 16 -13 45 -13 38 0 45 -3 45 -20 0
-14 7 -20 23 -20 22 -1 22 -1 2 -16 -18 -13 -20 -13 -23 0 -4 20 -16 20 -33 0
-13 -15 -44 -15 -81 1 -21 8 -51 -21 -141 -137 -32 -41 -80 -97 -108 -124
l-49 -48 33 -14 c56 -24 331 -122 344 -122 6 0 27 14 45 30 18 17 40 29 48 28
8 -1 31 8 50 20 19 12 42 22 50 22 8 1 33 9 55 20 22 11 45 19 51 20 6 0 19 9
29 20 10 11 31 20 46 20 25 0 30 5 39 41 6 23 9 48 5 56 -3 9 0 22 6 29 23 27
7 154 -20 154 -5 0 -12 18 -16 40 -4 25 -12 40 -21 40 -16 0 -19 16 -4 25 7 4
5 14 -4 27 -8 11 -12 27 -9 34 4 10 -3 14 -21 14 -31 0 -33 11 -6 35 22 20 20
27 -18 52 -18 12 -41 17 -67 15z m-105 -286 c0 -3 -4 -8 -10 -11 -5 -3 -10 -1
-10 4 0 6 5 11 10 11 6 0 10 -2 10 -4z m300 -86 c0 -5 -4 -10 -10 -10 -5 0
-10 5 -10 10 0 6 5 10 10 10 6 0 10 -4 10 -10z"/>
<path d="M3227 713 c-12 -11 -8 -21 12 -26 19 -5 41 9 41 26 0 5 -7 4 -15 -3
-10 -9 -15 -9 -15 -1 0 12 -13 15 -23 4z"/>
<path d="M58 555 c-14 -32 4 -55 43 -55 31 0 35 9 18 43 -23 43 -45 47 -61 12z"/>
<path d="M158 418 c-1 -18 -1 -46 0 -62 1 -16 -3 -35 -9 -42 -15 -18 -11 -22
29 -30 23 -5 32 -3 33 7 0 8 2 25 3 38 2 14 -2 41 -7 60 -20 67 -46 82 -49 29z"/>
<path d="M0 185 c0 -52 4 -95 8 -95 5 0 18 11 29 24 12 13 35 27 52 31 38 8
41 39 9 96 -19 35 -26 39 -60 39 l-38 0 0 -95z"/>
<path d="M1440 230 c-22 -6 -23 -8 -7 -15 9 -4 29 -4 44 0 21 5 24 8 12 16
-16 10 -15 10 -49 -1z"/>
<path d="M786 157 c-13 -10 -16 -20 -12 -35 13 -40 72 -17 64 25 -4 23 -28 27
-52 10z"/>
<path d="M550 125 c-19 -7 -47 -16 -62 -19 -30 -7 -42 -24 -53 -73 l-7 -33
171 0 c185 0 182 -1 161 54 -12 33 -35 33 -56 1 -9 -14 -21 -25 -27 -25 -15 0
-77 69 -77 86 0 21 -12 23 -50 9z"/>
<path d="M260 93 c-8 -4 -20 -11 -27 -17 -7 -6 -19 -17 -28 -24 -8 -7 -15 -20
-15 -30 0 -15 14 -17 107 -20 99 -4 105 -3 90 13 -10 9 -17 20 -17 25 0 6 -89
63 -94 59 0 0 -8 -3 -16 -6z"/>
<path d="M40 20 c0 -16 7 -20 32 -20 30 0 31 0 13 20 -23 26 -45 26 -45 0z"/>
</g>
</svg>
